<svg width="84" height="84" viewBox="0 0 84 84" fill="none" xmlns="http://www.w3.org/2000/svg">
<path fill-rule="evenodd" clip-rule="evenodd" d="M42 83.215C64.7624 83.215 83.215 64.7624 83.215 42C83.215 19.2376 64.7624 0.785047 42 0.785047C19.2376 0.785047 0.785047 19.2376 0.785047 42C0.785047 64.7624 19.2376 83.215 42 83.215ZM42 84C65.196 84 84 65.196 84 42C84 18.804 65.196 0 42 0C18.804 0 0 18.804 0 42C0 65.196 18.804 84 42 84Z" fill="#6A5D6A"/>
<mask id="mask0_1_215" style="mask-type:alpha" maskUnits="userSpaceOnUse" x="0" y="0" width="84" height="84">
<path fill-rule="evenodd" clip-rule="evenodd" d="M42 80.8598C63.4617 80.8598 80.8598 63.4617 80.8598 42C80.8598 20.5383 63.4617 3.14019 42 3.14019C20.5383 3.14019 3.14019 20.5383 3.14019 42C3.14019 63.4617 20.5383 80.8598 42 80.8598ZM42 84C65.196 84 84 65.196 84 42C84 18.804 65.196 0 42 0C18.804 0 0 18.804 0 42C0 65.196 18.804 84 42 84Z" fill="#F54B31"/>
</mask>
<g mask="url(#mask0_1_215)">
<path d="M-12.1832 -12.1831H42.3207V42.3207H-12.1832V-12.1831Z" fill="#E2521D"/>
</g>
<path d="M42.495 50V34.425L39.195 35.45L38.72 33.85L42.995 32.375H44.445V50H42.495Z" fill="#E2521D"/>
</svg>
