<svg width="84" height="84" viewBox="0 0 84 84" fill="none" xmlns="http://www.w3.org/2000/svg">
<path fill-rule="evenodd" clip-rule="evenodd" d="M42 83.215C64.7624 83.215 83.215 64.7624 83.215 42C83.215 19.2376 64.7624 0.785047 42 0.785047C19.2376 0.785047 0.785047 19.2376 0.785047 42C0.785047 64.7624 19.2376 83.215 42 83.215ZM42 84C65.196 84 84 65.196 84 42C84 18.804 65.196 0 42 0C18.804 0 0 18.804 0 42C0 65.196 18.804 84 42 84Z" fill="#6A5D6A"/>
<mask id="mask0_1_231" style="mask-type:alpha" maskUnits="userSpaceOnUse" x="0" y="0" width="84" height="84">
<path fill-rule="evenodd" clip-rule="evenodd" d="M42 80.8598C63.4617 80.8598 80.8598 63.4617 80.8598 42C80.8598 20.5383 63.4617 3.14019 42 3.14019C20.5383 3.14019 3.14019 20.5383 3.14019 42C3.14019 63.4617 20.5383 80.8598 42 80.8598ZM42 84C65.196 84 84 65.196 84 42C84 18.804 65.196 0 42 0C18.804 0 0 18.804 0 42C0 65.196 18.804 84 42 84Z" fill="#F54B31"/>
</mask>
<g mask="url(#mask0_1_231)">
<path d="M-12.1832 -12.1831H42.3207V42.3207H-12.1832V-12.1831Z" fill="#E2521D"/>
</g>
<path d="M36.2171 50V48.475L42.5671 42.875C43.9338 41.675 44.8838 40.675 45.4171 39.875C45.9504 39.075 46.2171 38.2417 46.2171 37.375C46.2171 36.375 45.8754 35.5667 45.1921 34.95C44.5088 34.3333 43.6754 34.025 42.6921 34.025C41.7421 34.025 40.9004 34.2667 40.1671 34.75C39.4504 35.2333 38.7254 35.9917 37.9921 37.025L36.5421 35.975C37.3921 34.7083 38.2921 33.775 39.2421 33.175C40.1921 32.5583 41.3921 32.25 42.8421 32.25C44.4088 32.25 45.7004 32.725 46.7171 33.675C47.7504 34.6083 48.2671 35.8 48.2671 37.25C48.2671 38.45 47.9421 39.5167 47.2921 40.45C46.6421 41.3833 45.4921 42.5833 43.8421 44.05L39.1671 48.2H48.4421V50H36.2171Z" fill="#E2521D"/>
</svg>
