<svg width="84" height="84" viewBox="0 0 84 84" fill="none" xmlns="http://www.w3.org/2000/svg">
<path fill-rule="evenodd" clip-rule="evenodd" d="M42 83.215C64.7624 83.215 83.215 64.7624 83.215 42C83.215 19.2376 64.7624 0.785047 42 0.785047C19.2376 0.785047 0.785047 19.2376 0.785047 42C0.785047 64.7624 19.2376 83.215 42 83.215ZM42 84C65.196 84 84 65.196 84 42C84 18.804 65.196 0 42 0C18.804 0 0 18.804 0 42C0 65.196 18.804 84 42 84Z" fill="#6A5D6A"/>
<mask id="mask0_1_223" style="mask-type:alpha" maskUnits="userSpaceOnUse" x="0" y="0" width="84" height="84">
<path fill-rule="evenodd" clip-rule="evenodd" d="M42 80.8598C63.4617 80.8598 80.8598 63.4617 80.8598 42C80.8598 20.5383 63.4617 3.14019 42 3.14019C20.5383 3.14019 3.14019 20.5383 3.14019 42C3.14019 63.4617 20.5383 80.8598 42 80.8598ZM42 84C65.196 84 84 65.196 84 42C84 18.804 65.196 0 42 0C18.804 0 0 18.804 0 42C0 65.196 18.804 84 42 84Z" fill="#F54B31"/>
</mask>
<g mask="url(#mask0_1_223)">
<path d="M-12.1832 -12.1831H42.3207V42.3207H-12.1832V-12.1831Z" fill="#E2521D"/>
</g>
<path d="M42.109 50.3C39.359 50.3 37.184 49.2583 35.584 47.175L37.009 45.9C38.4257 47.6333 40.134 48.5 42.134 48.5C43.2173 48.5 44.1257 48.1833 44.859 47.55C45.5923 46.9167 45.959 46.0833 45.959 45.05C45.959 43.9833 45.509 43.1583 44.609 42.575C43.709 41.975 42.5257 41.675 41.059 41.675H39.934L39.534 40.5L45.059 34.275H36.509V32.5H47.684V33.95L42.184 40.05C43.8507 40.1833 45.2257 40.6667 46.309 41.5C47.409 42.3167 47.959 43.4917 47.959 45.025C47.959 46.5583 47.3923 47.825 46.259 48.825C45.1423 49.8083 43.759 50.3 42.109 50.3Z" fill="#E2521D"/>
</svg>
